<svg width="400" height="400" viewBox="0 0 400 400" xmlns="http://www.w3.org/2000/svg">
  <path d="M10,10 
    C8,8 12,7 15,10 
    C20,5 30,8 40,10 
    C60,5 80,8 100,10
    C120,6 140,12 160,10
    C180,7 200,9 220,10
    C240,12 260,6 280,10
    C300,8 320,10 340,10
    C360,7 380,12 390,10
    L390,390
    C392,392 388,393 385,390
    C380,395 370,392 360,390
    C340,395 320,392 300,390
    C280,394 260,388 240,390
    C220,393 200,391 180,390
    C160,388 140,394 120,390
    C100,392 80,390 60,390
    C40,393 20,388 10,390
    Z" 
    fill="none" 
    stroke="black" 
    stroke-width="2"
    stroke-linecap="round"
    stroke-linejoin="round"
    stroke-dasharray="4,2" />
</svg> 